<svg id="visual" viewBox="0 0 900 600" width="900" height="600" xmlns="http://www.w3.org/2000/svg" xmlns:xlink="http://www.w3.org/1999/xlink" version="1.1"><g transform="translate(1112.9879351874924 677.452747682232)"><path d="M323.2 -528.8C387.7 -522.5 387.4 -373 420.2 -261C453.1 -149 519 -74.5 476.2 -24.7C433.3 25 281.6 50 200.6 78.6C119.6 107.2 109.3 139.3 87.7 219.6C66 300 33 428.5 -13.9 452.6C-60.8 476.7 -121.7 396.4 -294.9 403.6C-468.1 410.7 -753.7 505.4 -859.6 452.7C-965.5 400 -891.7 200 -884.1 4.4C-876.4 -191.2 -934.9 -382.3 -865.2 -497.8C-795.6 -613.3 -597.8 -653 -432.2 -601C-266.7 -548.9 -133.3 -404.9 -2 -401.5C129.3 -398 258.7 -535 323.2 -528.8" fill="none" stroke="#ffc369" stroke-width="6"></path></g></svg>