<svg id="visual" viewBox="0 0 900 450" width="900" height="450" xmlns="http://www.w3.org/2000/svg" xmlns:xlink="http://www.w3.org/1999/xlink" version="1.1"><path d="M477 450L390 450L390 415L366 415L366 381L492 381L492 346L345 346L345 312L353 312L353 277L477 277L477 242L386 242L386 208L298 208L298 173L299 173L299 138L547 138L547 104L425 104L425 69L452 69L452 35L296 35L296 0L900 0L900 35L900 35L900 69L900 69L900 104L900 104L900 138L900 138L900 173L900 173L900 208L900 208L900 242L900 242L900 277L900 277L900 312L900 312L900 346L900 346L900 381L900 381L900 415L900 415L900 450L900 450Z" fill="#9900ff"></path><path d="M554 450L565 450L565 415L409 415L409 381L482 381L482 346L444 346L444 312L564 312L564 277L469 277L469 242L559 242L559 208L523 208L523 173L370 173L370 138L491 138L491 104L598 104L598 69L469 69L469 35L525 35L525 0L900 0L900 35L900 35L900 69L900 69L900 104L900 104L900 138L900 138L900 173L900 173L900 208L900 208L900 242L900 242L900 277L900 277L900 312L900 312L900 346L900 346L900 381L900 381L900 415L900 415L900 450L900 450Z" fill="#9000f0"></path><path d="M440 450L417 450L417 415L590 415L590 381L614 381L614 346L542 346L542 312L505 312L505 277L613 277L613 242L448 242L448 208L586 208L586 173L449 173L449 138L450 138L450 104L457 104L457 69L527 69L527 35L579 35L579 0L900 0L900 35L900 35L900 69L900 69L900 104L900 104L900 138L900 138L900 173L900 173L900 208L900 208L900 242L900 242L900 277L900 277L900 312L900 312L900 346L900 346L900 381L900 381L900 415L900 415L900 450L900 450Z" fill="#8800e2"></path><path d="M598 450L578 450L578 415L496 415L496 381L569 381L569 346L516 346L516 312L634 312L634 277L644 277L644 242L560 242L560 208L499 208L499 173L638 173L638 138L490 138L490 104L667 104L667 69L540 69L540 35L564 35L564 0L900 0L900 35L900 35L900 69L900 69L900 104L900 104L900 138L900 138L900 173L900 173L900 208L900 208L900 242L900 242L900 277L900 277L900 312L900 312L900 346L900 346L900 381L900 381L900 415L900 415L900 450L900 450Z" fill="#7f00d4"></path><path d="M667 450L657 450L657 415L659 415L659 381L578 381L578 346L657 346L657 312L664 312L664 277L720 277L720 242L570 242L570 208L600 208L600 173L703 173L703 138L576 138L576 104L674 104L674 69L719 69L719 35L647 35L647 0L900 0L900 35L900 35L900 69L900 69L900 104L900 104L900 138L900 138L900 173L900 173L900 208L900 208L900 242L900 242L900 277L900 277L900 312L900 312L900 346L900 346L900 381L900 381L900 415L900 415L900 450L900 450Z" fill="#7700c6"></path><path d="M606 450L645 450L645 415L744 415L744 381L684 381L684 346L717 346L717 312L739 312L739 277L598 277L598 242L614 242L614 208L669 208L669 173L642 173L642 138L758 138L758 104L619 104L619 69L738 69L738 35L678 35L678 0L900 0L900 35L900 35L900 69L900 69L900 104L900 104L900 138L900 138L900 173L900 173L900 208L900 208L900 242L900 242L900 277L900 277L900 312L900 312L900 346L900 346L900 381L900 381L900 415L900 415L900 450L900 450Z" fill="#6f00b8"></path><path d="M791 450L771 450L771 415L743 415L743 381L717 381L717 346L750 346L750 312L727 312L727 277L730 277L730 242L715 242L715 208L792 208L792 173L772 173L772 138L727 138L727 104L679 104L679 69L755 69L755 35L760 35L760 0L900 0L900 35L900 35L900 69L900 69L900 104L900 104L900 138L900 138L900 173L900 173L900 208L900 208L900 242L900 242L900 277L900 277L900 312L900 312L900 346L900 346L900 381L900 381L900 415L900 415L900 450L900 450Z" fill="#6600ab"></path><path d="M805 450L792 450L792 415L743 415L743 381L766 381L766 346L745 346L745 312L805 312L805 277L792 277L792 242L746 242L746 208L751 208L751 173L809 173L809 138L822 138L822 104L734 104L734 69L787 69L787 35L747 35L747 0L900 0L900 35L900 35L900 69L900 69L900 104L900 104L900 138L900 138L900 173L900 173L900 208L900 208L900 242L900 242L900 277L900 277L900 312L900 312L900 346L900 346L900 381L900 381L900 415L900 415L900 450L900 450Z" fill="#5e009d"></path><path d="M792 450L828 450L828 415L810 415L810 381L842 381L842 346L789 346L789 312L858 312L858 277L865 277L865 242L861 242L861 208L796 208L796 173L870 173L870 138L838 138L838 104L865 104L865 69L861 69L861 35L837 35L837 0L900 0L900 35L900 35L900 69L900 69L900 104L900 104L900 138L900 138L900 173L900 173L900 208L900 208L900 242L900 242L900 277L900 277L900 312L900 312L900 346L900 346L900 381L900 381L900 415L900 415L900 450L900 450Z" fill="#560090"></path></svg>