<svg id="visual" viewBox="0 0 1920 1080" width="1920" height="1080" xmlns="http://www.w3.org/2000/svg" xmlns:xlink="http://www.w3.org/1999/xlink" version="1.1"><rect x="0" y="0" width="1920" height="1080" fill="#140021"></rect><path d="M1465 0L1216 0L1216 77L1613 77L1613 154L1418 154L1418 231L1424 231L1424 309L1568 309L1568 386L1510 386L1510 463L1411 463L1411 540L1588 540L1588 617L1159 617L1159 694L1510 694L1510 771L1571 771L1571 849L1234 849L1234 926L1239 926L1239 1003L1183 1003L1183 1080L0 1080L0 1003L0 1003L0 926L0 926L0 849L0 849L0 771L0 771L0 694L0 694L0 617L0 617L0 540L0 540L0 463L0 463L0 386L0 386L0 309L0 309L0 231L0 231L0 154L0 154L0 77L0 77L0 0L0 0Z" fill="#9900ff"></path><path d="M927 0L1172 0L1172 77L1329 77L1329 154L1218 154L1218 231L978 231L978 309L1188 309L1188 386L1321 386L1321 463L1003 463L1003 540L903 540L903 617L976 617L976 694L1088 694L1088 771L1125 771L1125 849L1322 849L1322 926L1167 926L1167 1003L880 1003L880 1080L0 1080L0 1003L0 1003L0 926L0 926L0 849L0 849L0 771L0 771L0 694L0 694L0 617L0 617L0 540L0 540L0 463L0 463L0 386L0 386L0 309L0 309L0 231L0 231L0 154L0 154L0 77L0 77L0 0L0 0Z" fill="#8800e2"></path><path d="M748 0L1058 0L1058 77L756 77L756 154L937 154L937 231L953 231L953 309L1039 309L1039 386L704 386L704 463L659 463L659 540L711 540L711 617L679 617L679 694L660 694L660 771L866 771L866 849L1018 849L1018 926L1018 926L1018 1003L1048 1003L1048 1080L0 1080L0 1003L0 1003L0 926L0 926L0 849L0 849L0 771L0 771L0 694L0 694L0 617L0 617L0 540L0 540L0 463L0 463L0 386L0 386L0 309L0 309L0 231L0 231L0 154L0 154L0 77L0 77L0 0L0 0Z" fill="#7700c6"></path><path d="M366 0L713 0L713 77L731 77L731 154L386 154L386 231L572 231L572 309L667 309L667 386L513 386L513 463L630 463L630 540L731 540L731 617L491 617L491 694L579 694L579 771L523 771L523 849L704 849L704 926L639 926L639 1003L444 1003L444 1080L0 1080L0 1003L0 1003L0 926L0 926L0 849L0 849L0 771L0 771L0 694L0 694L0 617L0 617L0 540L0 540L0 463L0 463L0 386L0 386L0 309L0 309L0 231L0 231L0 154L0 154L0 77L0 77L0 0L0 0Z" fill="#6600ab"></path><path d="M383 0L262 0L262 77L116 77L116 154L339 154L339 231L174 231L174 309L154 309L154 386L471 386L471 463L345 463L345 540L222 540L222 617L243 617L243 694L385 694L385 771L222 771L222 849L142 849L142 926L443 926L443 1003L302 1003L302 1080L0 1080L0 1003L0 1003L0 926L0 926L0 849L0 849L0 771L0 771L0 694L0 694L0 617L0 617L0 540L0 540L0 463L0 463L0 386L0 386L0 309L0 309L0 231L0 231L0 154L0 154L0 77L0 77L0 0L0 0Z" fill="#560090"></path></svg>