<svg id="visual" viewBox="0 0 1920 1080" width="1920" height="1080" xmlns="http://www.w3.org/2000/svg" xmlns:xlink="http://www.w3.org/1999/xlink" version="1.1"><rect x="0" y="0" width="1920" height="1080" fill="#140021"></rect><path d="M1210 0L1323 0L1323 77L1228 77L1228 154L1453 154L1453 231L1565 231L1565 309L1536 309L1536 386L1399 386L1399 463L1351 463L1351 540L1547 540L1547 617L1240 617L1240 694L1610 694L1610 771L1622 771L1622 849L1158 849L1158 926L1599 926L1599 1003L1317 1003L1317 1080L0 1080L0 1003L0 1003L0 926L0 926L0 849L0 849L0 771L0 771L0 694L0 694L0 617L0 617L0 540L0 540L0 463L0 463L0 386L0 386L0 309L0 309L0 231L0 231L0 154L0 154L0 77L0 77L0 0L0 0Z" fill="#560090"></path><path d="M1297 0L1244 0L1244 77L1207 77L1207 154L966 154L966 231L890 231L890 309L1200 309L1200 386L1338 386L1338 463L1146 463L1146 540L1139 540L1139 617L1177 617L1177 694L1196 694L1196 771L1277 771L1277 849L1274 849L1274 926L937 926L937 1003L1145 1003L1145 1080L0 1080L0 1003L0 1003L0 926L0 926L0 849L0 849L0 771L0 771L0 694L0 694L0 617L0 617L0 540L0 540L0 463L0 463L0 386L0 386L0 309L0 309L0 231L0 231L0 154L0 154L0 77L0 77L0 0L0 0Z" fill="#844bac"></path><path d="M1051 0L973 0L973 77L997 77L997 154L985 154L985 231L688 231L688 309L804 309L804 386L969 386L969 463L843 463L843 540L1054 540L1054 617L742 617L742 694L1010 694L1010 771L837 771L837 849L978 849L978 926L1030 926L1030 1003L886 1003L886 1080L0 1080L0 1003L0 1003L0 926L0 926L0 849L0 849L0 771L0 771L0 694L0 694L0 617L0 617L0 540L0 540L0 463L0 463L0 386L0 386L0 309L0 309L0 231L0 231L0 154L0 154L0 77L0 77L0 0L0 0Z" fill="#af86c8"></path><path d="M397 0L696 0L696 77L677 77L677 154L482 154L482 231L554 231L554 309L502 309L502 386L756 386L756 463L731 463L731 540L583 540L583 617L422 617L422 694L478 694L478 771L486 771L486 849L466 849L466 926L712 926L712 1003L592 1003L592 1080L0 1080L0 1003L0 1003L0 926L0 926L0 849L0 849L0 771L0 771L0 694L0 694L0 617L0 617L0 540L0 540L0 463L0 463L0 386L0 386L0 309L0 309L0 231L0 231L0 154L0 154L0 77L0 77L0 0L0 0Z" fill="#d7c1e4"></path><path d="M345 0L378 0L378 77L177 77L177 154L217 154L217 231L339 231L339 309L93 309L93 386L169 386L169 463L272 463L272 540L425 540L425 617L270 617L270 694L328 694L328 771L377 771L377 849L162 849L162 926L304 926L304 1003L160 1003L160 1080L0 1080L0 1003L0 1003L0 926L0 926L0 849L0 849L0 771L0 771L0 694L0 694L0 617L0 617L0 540L0 540L0 463L0 463L0 386L0 386L0 309L0 309L0 231L0 231L0 154L0 154L0 77L0 77L0 0L0 0Z" fill="#ffffff"></path></svg>